# xmcd
#
# Track frame offsets: 
#        183
#        15308
#        35293
#        48618
#        70355
#        92743
#        110063
#        125715
#        137698
#        155035
#
# Disc length: 2322 seconds
#
# Revision: 4
# Processed by: cddbd v1.5.2PL0 Copyright (c) Steve Scherf et al.
# Submitted via: ExactAudioCopy v0.95b4
#
DISCID=8b09100a
DTITLE=Rui Veloso - Mingos e os Samurais [CD2]
DYEAR=1990
DGENRE=Pop
TTITLE0=Fio de Beque
TTITLE1=Morena de Azul
TTITLE2=Psicadélico Desesperado
TTITLE3=Zira
TTITLE4=Baile da Paróquia
TTITLE5=A Paixão (Segundo Nicolau da Viola)
TTITLE6=Twist é Sedução II
TTITLE7=No Dia em que o Meno Rock Morreu
TTITLE8=Um Trolha d'Areosa
TTITLE9=Embalagem de Damas
EXTD=
EXTT0=
EXTT1=
EXTT2=
EXTT3=
EXTT4=
EXTT5=
EXTT6=
EXTT7=
EXTT8=
EXTT9=
PLAYORDER=
